# xmcd CD database file
#
# Track frame offsets:
#	150
#	27381
#	61770
#	84164
#	121016
#	141346
#	160527
#	181044
#	205485
#	233719
#	257251
#
# Disc length: 3844 seconds
#
# Revision: 0
# Processed by: cddbd v1.5.2PL0 Copyright (c) Steve Scherf et al.
# Submitted via: CDex 1.91
#
DISCID=7e0f020b
DTITLE=Various Artist - Jazziz Nightlife, CD 1
DYEAR=2013
DGENRE=Jazz
TTITLE0=Bob James and David Sanborn - Deep in the Weeds
TTITLE1=Gino Vanelli - Brother to Brother
TTITLE2=7Crossing - We Can Get Through This 
TTITLE3=Troy Roberts - Mono Stereos
TTITLE4=Perry Joslin Project - Pinnacle Mountain
TTITLE5=Ariel Pocock - Real Emothonal Girl
TTITLE6=Tom Schuman - Designated Planets
TTITLE7=Yellowjackes - Can't We Elope
TTITLE8=Antonio Adolfo - Floresta Azul
TTITLE9=Negroni's Trio - Dancing With the Bass
TTITLE10=Jesse Jones Jr. - So Then
EXTD=YEAR: 2013
EXTT0=
EXTT1=
EXTT2=
EXTT3=
EXTT4=
EXTT5=
EXTT6=
EXTT7=
EXTT8=
EXTT9=
EXTT10=
PLAYORDER=
